<?xml version="1.0" encoding="UTF-8"?>
<!DOCTYPE svg PUBLIC "-//W3C//DTD SVG 1.1//EN" "http://www.w3.org/Graphics/SVG/1.1/DTD/svg11.dtd">
<!-- Creator: CorelDRAW (Versión de evaluación) -->
<svg xmlns="http://www.w3.org/2000/svg" xml:space="preserve" width="39px" height="100px" version="1.1" shape-rendering="geometricPrecision" text-rendering="geometricPrecision" image-rendering="optimizeQuality" fill-rule="evenodd" clip-rule="evenodd"
viewBox="0 0 12.12 31"
 xmlns:xlink="http://www.w3.org/1999/xlink"
 xmlns:xodm="http://www.corel.com/coreldraw/odm/2003">
 <g id="Capa_x0020_1">
  <metadata id="CorelCorpID_0Corel-Layer"/>
  <path fill="white" d="M11.45 14.28l-2.78 0c-0.36,0 -0.66,-0.3 -0.66,-0.67l0 -3.06c0,-0.36 0.3,-0.66 0.66,-0.66l1.39 0c1.13,0 2.06,0.92 2.06,2.05l0 1.67c0,0.37 -0.3,0.67 -0.67,0.67z"/>
  <path fill="white" d="M1.76 9.89l1.19 0c0.67,0.01 1.34,-0.42 1.3,-1.53 -0.01,-1.94 0,-5.09 0,-5.51 0.01,-0.35 0.51,-0.67 -0.04,-0.68 -0.3,0 -0.54,-0.24 -0.54,-0.54 0,-0.3 0.24,-0.55 0.54,-0.55 -0.3,0 -0.54,-0.24 -0.54,-0.54 0,-0.3 0.24,-0.54 0.54,-0.54l3.69 0c0.3,0 0.55,0.24 0.55,0.54 0,0.3 -0.25,0.54 -0.55,0.54 0.3,0 0.55,0.25 0.55,0.55 0,0.3 -0.25,0.54 -0.55,0.54 -0.56,0 -0.03,0.34 -0.04,0.68l0 6.07c0,0.53 -0.43,0.97 -0.97,0.97l-0.95 0c-0.97,0 -1.76,0.79 -1.76,1.76l0 14.16c0,0.82 0.67,1.5 1.5,1.5l6.44 0 0 2.19c0,0.82 -0.68,1.5 -1.51,1.5l-9.11 0c-0.82,0 -1.5,-0.68 -1.5,-1.5l0 -17.85c0,-0.97 0.79,-1.76 1.76,-1.76z"/>
  <path fill="white" d="M11.75 25.58l-3.38 0c-0.2,0 -0.37,-0.15 -0.37,-0.32l0 -9.2c0,-0.17 0.17,-0.32 0.37,-0.32l3.38 0c0.2,0 0.37,0.15 0.37,0.32l0 9.2c0,0.17 -0.17,0.32 -0.37,0.32z"/>
 </g>
</svg>
